:SAMPLES-PER-SECOND 30
:FULLY-SPECIFIED
:DEGREES
505
root  2.60494 31.2385 17.2079 88.744 11.8778 95.9155
Spine  1.82759 0.416146 -9.79486
Spine1  1.25279 -3.76987 1.81246
Neck  3.97569e-016 0 -2.38542e-015
Head  9.81799 -9.00822 25.4661
R_Clavicle  0.407438 -19.2587 1.59324
R_UpperArm  18.4693 -3.86615 23.2209
R_Forearm  17.4852 -30.211 20.4821
R_Hand  -0.705364 7.2015 -16.3755
L_Clavicle  -0.847458 22.8112 -3.03131
L_UpperArm  -19.7483 10.5996 32.6378
L_Forearm  22.5197 47.2517 52.298
L_Hand  0.0986343 -1.86269 2.82049
L_Thigh  -14.4469 -0.444477 -0.798327
L_Calf  -5.69708 -2.77374 20.6648
L_Foot  1.53026 12.5496 -4.96955
L_Toe0  0.505156 0.034446 -6.1361
R_Thigh  2.87219 -12.5773 -33.4235
R_Calf  2.25314 5.03832 15.8728
R_Foot  3.25979 11.2502 3.15085
R_Toe0  6.77858 -2.16879 -0.631033
506
root  2.26882 31.0879 15.9514 82.9202 12.3032 94.2903
Spine  2.9143 4.37044 -8.47119
Spine1  2.17217 -5.83167 1.5455
Neck  3.97569e-016 0 -2.38542e-015
Head  12.4152 -10.7321 22.4466
R_Clavicle  0.417877 -20.3564 1.88438
R_UpperArm  13.551 1.32661 20.1784
R_Forearm  22.5226 -28.5548 20.3583
R_Hand  -1.17391 7.23912 -20.212
L_Clavicle  -0.913734 24.8871 -2.35725
L_UpperArm  -19.996 10.0726 35.4424
L_Forearm  23.0485 47.5206 53.6468
L_Hand  0.111141 -2.39452 3.64671
L_Thigh  -17.0746 2.78415 0.0828779
L_Calf  -6.84748 -2.93634 21.8286
L_Foot  0.495626 12.5422 -8.36246
L_Toe0  0.505156 0.034446 -6.1361
R_Thigh  -2.35921 -11.8173 -33.0183
R_Calf  0.602495 6.4702 20.598
R_Foot  4.15426 13.6464 11.2382
R_Toe0  0.668379 -0.235648 -6.91224
507
root  1.82756 31.115 14.4918 78.1795 12.5082 92.2089
Spine  3.8534 9.5957 -6.63549
Spine1  2.48774 -9.09972 2.79099
Neck  3.97569e-016 0 -2.38542e-015
Head  14.7658 -12.1994 18.2256
R_Clavicle  0.417386 -20.7403 1.76517
R_UpperArm  15.6412 5.82851 15.9085
R_Forearm  21.5756 -30.817 20.262
R_Hand  -1.74093 7.62224 -24.7471
L_Clavicle  -0.874672 25.2095 -1.7023
L_UpperArm  -21.1304 9.86357 35.0806
L_Forearm  23.9947 47.3913 55.1806
L_Hand  0.106073 -3.24531 4.60985
L_Thigh  -18.145 6.01345 0.63248
L_Calf  -7.45781 -3.21159 24.1855
L_Foot  0.331047 12.8017 -9.05521
L_Toe0  0.505156 0.034446 -6.1361
R_Thigh  -4.99002 -9.59388 -30.6555
R_Calf  1.2584 7.0285 22.4826
R_Foot  2.95919 10.7924 15.9608
R_Toe0  -0.140654 -0.270506 -15.2763
508
root  1.36449 31.2952 12.921 75.9454 11.9155 90.7252
Spine  4.0551 13.0902 -5.50028
Spine1  2.10974 -10.4425 4.24592
Neck  3.97569e-016 0 -2.38542e-015
Head  16.7194 -13.3064 14.9155
R_Clavicle  0.402245 -18.8842 1.48517
R_UpperArm  23.4407 8.13879 10.9728
R_Forearm  15.4627 -35.2987 20.7313
R_Hand  -2.09496 8.52528 -27.1278
L_Clavicle  -0.816872 23.9351 -1.72142
L_UpperArm  -22.603 11.69 33.2688
L_Forearm  22.8857 46.3513 55.7377
L_Hand  0.0824567 -3.92275 4.75944
L_Thigh  -16.7743 7.68419 1.48931
L_Calf  -6.54163 -3.8502 27.9559
L_Foot  1.31519 12.3444 -5.52816
L_Toe0  0.505156 0.034446 -6.1361
R_Thigh  -4.01094 -7.15159 -26.862
R_Calf  1.39277 6.88085 21.9806
R_Foot  1.2453 7.11285 16.6643
R_Toe0  -1.74386 -0.268953 -17.4497
509
root  0.954403 31.4696 11.3882 75.9947 10.9235 90.2667
Spine  3.48191 12.8983 -5.02348
Spine1  1.65078 -7.73688 4.49748
Neck  3.97569e-016 0 -2.38542e-015
Head  18.2681 -13.8745 13.7418
R_Clavicle  0.378192 -15.8171 1.40071
R_UpperArm  30.173 9.13967 6.77866
R_Forearm  9.5553 -38.5168 22.0239
R_Hand  -1.8602 9.09958 -25.2473
L_Clavicle  -0.76167 22.1325 -2.23514
L_UpperArm  -23.9972 15.5102 31.2911
L_Forearm  18.9428 44.6447 54.9934
L_Hand  0.0712042 -3.80511 3.64365
L_Thigh  -12.9998 7.45209 2.54971
L_Calf  -5.1903 -4.99265 31.681
L_Foot  2.57474 11.3936 -0.695505
L_Toe0  0.505156 0.034446 -6.1361
R_Thigh  -1.46878 -5.50332 -22.486
R_Calf  -0.736559 6.35042 20.2031
R_Foot  0.505682 5.24021 14.8551
R_Toe0  -1.44453 -0.267019 -17.128
